<svg width="903" height="684" viewBox="0 0 903 684" fill="none" xmlns="http://www.w3.org/2000/svg">
<path d="M106.93 631.759L79.5991 652L43.7451 625.951L71.0761 605.709L106.93 631.759Z" fill="#E4E4EA"/>
<path d="M78.319 628.481L35.956 659.856L0.103027 633.807L42.466 602.432L78.319 628.481Z" fill="#B1B1B1"/>
<path d="M78.319 628.481L78.626 652.141L36.267 683.515L35.96 659.855L78.319 628.481Z" fill="#929292"/>
<path d="M35.956 659.856L36.263 683.516L0.409027 657.467L0.103027 633.807L35.956 659.856Z" fill="#BEBEBE"/>
<path d="M902.261 150.387L884.032 163.887L903 177.668L882.859 192.585L844.439 164.671L882.809 136.254L902.261 150.387Z" fill="#E4E4EA"/>
<path d="M865.262 136.853L845.117 151.775L824.942 137.116L845.088 122.196L865.262 136.853Z" fill="#B1B1B1"/>
<path d="M865.262 136.853L865.562 159.919L845.415 174.839L845.115 151.773L865.262 136.853Z" fill="#929292"/>
<path d="M845.117 151.773L845.417 174.839L825.243 160.182L824.943 137.116L845.117 151.773Z" fill="#BEBEBE"/>
<path d="M845.17 165.796L825.024 180.717L804.85 166.059L824.996 151.139L845.17 165.796Z" fill="#B1B1B1"/>
<path d="M845.169 165.796L845.469 188.862L825.323 203.781L825.023 180.715L845.169 165.796Z" fill="#929292"/>
<path d="M825.024 180.715L825.324 203.781L805.149 189.123L804.849 166.057L825.024 180.715Z" fill="#BEBEBE"/>
<path d="M885.49 165.795L865.344 180.716L845.17 166.058L865.316 151.138L885.49 165.795Z" fill="#B1B1B1"/>
<path d="M885.49 165.795L885.79 188.861L865.644 203.78L865.344 180.714L885.49 165.795Z" fill="#929292"/>
<path d="M865.344 180.715L865.644 203.781L845.47 189.124L845.17 166.058L865.344 180.715Z" fill="#BEBEBE"/>
<path d="M470.343 235.703L448.443 251.921L415.099 227.696L436.999 211.478L470.343 235.703Z" fill="#E4E4EA"/>
<path d="M447.683 229.969L411.511 256.758L375.242 230.407L411.414 203.618L447.683 229.969Z" fill="#C00046"/>
<path d="M447.683 229.969L447.967 251.906L411.795 278.695L411.511 256.758L447.683 229.969Z" fill="#9E003A"/>
<path d="M411.511 256.758L411.795 278.695L375.526 252.344L375.242 230.41L411.511 256.758Z" fill="#CE004B"/>
<path d="M556.921 268.831L549.271 274.497L537.871 266.215L545.521 260.549L556.921 268.831Z" fill="#E4E4EA"/>
<path d="M548.978 261.459L537.596 269.889L526.203 261.612L537.585 253.182L548.978 261.459Z" fill="#C00046"/>
<path d="M548.979 261.458L549.148 274.487L537.766 282.917L537.597 269.888L548.979 261.458Z" fill="#9E003A"/>
<path d="M537.596 269.888L537.765 282.917L526.372 274.64L526.203 261.611L537.596 269.888Z" fill="#CE004B"/>
<path d="M518.618 287.765L501.645 300.335L478.416 283.458L495.389 270.888L518.618 287.765Z" fill="#E4E4EA"/>
<path d="M501.755 281.164L478.565 298.339L455.342 281.467L478.532 264.292L501.755 281.164Z" fill="#C00046"/>
<path d="M501.756 281.168L502.004 300.306L478.814 317.481L478.566 298.343L501.756 281.168Z" fill="#9E003A"/>
<path d="M478.566 298.343L478.814 317.481L455.591 300.609L455.343 281.471L478.566 298.343Z" fill="#CE004B"/>
<path d="M902.661 353.864L879.681 370.883L837.254 340.058L860.234 323.039L902.661 353.864Z" fill="#E4E4EA"/>
<path d="M823.184 411.591L800.204 428.61L757.777 397.785L780.757 380.766L823.184 411.591Z" fill="#E4E4EA"/>
<path d="M515.738 634.952L492.758 651.971L450.332 621.146L473.312 604.127L515.738 634.952Z" fill="#E4E4EA"/>
<path d="M666.698 525.403L643.718 542.422L601.291 511.597L624.271 494.578L666.698 525.403Z" fill="#E4E4EA"/>
<path d="M738.517 348.392L715.538 365.41L646.232 315.055L669.212 298.036L738.517 348.392Z" fill="#E4E4EA"/>
<path d="M817.769 290.878L794.802 307.887L725.496 257.532L748.463 240.523L817.769 290.878Z" fill="#E4E4EA"/>
<path d="M661.289 404.694L638.31 421.71L569.002 371.357L591.982 354.338L661.289 404.694Z" fill="#E4E4EA"/>
<path d="M582.015 462.203L559.033 479.223L489.724 428.867L512.703 411.848L582.015 462.203Z" fill="#E4E4EA"/>
<path d="M725.798 220.305L795.331 271.805L752.788 302.714L683.254 251.214L725.798 220.305Z" fill="#D4004E"/>
<path d="M795.332 271.802L794.866 307.711L752.325 338.62L752.791 302.712L795.332 271.802Z" fill="#B70043"/>
<path d="M752.788 302.711L752.322 338.62L682.789 287.12L683.255 251.211L752.788 302.711Z" fill="#9E003A"/>
<path d="M646.161 278.165L715.694 329.665L673.151 360.574L603.617 309.074L646.161 278.165Z" fill="#D4004E"/>
<path d="M715.695 329.662L715.229 365.57L672.686 396.475L673.151 360.566L715.695 329.662Z" fill="#B70043"/>
<path d="M673.15 360.571L672.684 396.479L603.15 344.979L603.615 309.07L673.15 360.571Z" fill="#9E003A"/>
<path d="M568.802 334.367L638.335 385.867L595.784 416.786L526.25 365.286L568.802 334.367Z" fill="#D4004E"/>
<path d="M638.335 385.867L637.869 421.776L595.313 452.695L595.779 416.786L638.335 385.867Z" fill="#B70043"/>
<path d="M595.779 416.786L595.313 452.695L525.779 401.195L526.245 365.286L595.779 416.786Z" fill="#9E003A"/>
<path d="M489.849 391.731L559.383 443.231L516.827 474.15L447.294 422.65L489.849 391.731Z" fill="#D4004E"/>
<path d="M559.383 443.228L558.917 479.137L516.363 510.055L516.829 474.146L559.383 443.228Z" fill="#B70043"/>
<path d="M516.828 474.147L516.362 510.056L446.829 458.556L447.295 422.648L516.828 474.147Z" fill="#9E003A"/>
<path d="M837.814 303.267L880.314 334.74L837.766 365.647L795.266 334.174L837.814 303.267Z" fill="#D4004E"/>
<path d="M880.309 334.738L879.843 370.647L837.301 401.554L837.766 365.645L880.309 334.738Z" fill="#B70043"/>
<path d="M837.766 365.646L837.3 401.555L794.8 370.083L795.266 334.174L837.766 365.646Z" fill="#9E003A"/>
<path d="M758.177 361.125L800.677 392.598L680.757 479.721L638.257 448.249L758.177 361.125Z" fill="#D4004E"/>
<path d="M800.673 392.598L800.207 428.507L680.292 515.631L680.758 479.723L800.673 392.598Z" fill="#B70043"/>
<path d="M680.757 479.722L680.291 515.63L637.791 484.157L638.257 448.249L680.757 479.722Z" fill="#9E003A"/>
<path d="M644.362 506.164L643.896 542.073L566.524 598.287L566.99 562.379L644.362 506.164Z" fill="#B70043"/>
<path d="M524.493 530.901L524.027 566.81L481.484 597.719L481.95 561.811L524.493 530.901Z" fill="#B70043"/>
<path d="M524.445 593.287L523.979 629.196L369.469 514.761L369.935 478.852L524.445 593.287Z" fill="#9E003A"/>
<path d="M601.866 474.691L644.366 506.164L566.994 562.378L524.451 593.287L481.951 561.814L524.494 530.905L601.866 474.691Z" fill="#D4004E"/>
<path d="M566.989 562.378L566.523 598.287L523.98 629.196L524.446 593.287L566.989 562.378Z" fill="#B70043"/>
<path d="M412.482 447.945L524.498 530.905L481.955 561.815L524.455 593.287L566.998 562.378L524.455 593.287L369.935 478.854L412.482 447.945Z" fill="#D4004E"/>
<path d="M524.446 593.288L523.98 629.197L481.48 597.724L481.946 561.815L524.446 593.288Z" fill="#9E003A"/>
<path d="M566.989 562.378L566.523 598.287L523.98 629.196L524.446 593.287L566.989 562.378Z" fill="#B70043"/>
<path d="M338.989 501.339L493.5 615.772L450.945 646.691L296.432 532.258L338.989 501.339Z" fill="#D4004E"/>
<path d="M493.496 615.772L493.031 651.681L450.474 682.6L450.94 646.691L493.496 615.772Z" fill="#B70043"/>
<path d="M450.944 646.689L450.478 682.598L295.966 568.167L296.432 532.259L450.944 646.689Z" fill="#9E003A"/>
<path d="M494.667 -10.147L264.031 160.665L32.999 -7.18896L263.637 -178L494.667 -10.147Z" fill="#5FA153"/>
<path d="M494.667 -10.147L494.84 3.18802L264.203 174L264.03 160.665L494.667 -10.147Z" fill="#4E8545"/>
<path d="M264.031 160.664L264.204 173.999L33.173 6.14603L33 -7.18896L264.031 160.664Z" fill="#66AD59"/>
<path d="M867.924 631.539L837.518 654.058L797.554 625.022L827.96 602.503L867.924 631.539Z" fill="#E4E4EA"/>
<path d="M837.732 628.511L797.824 658.067L755.481 627.302L795.389 597.746L837.732 628.511Z" fill="#D5971B"/>
<path d="M837.732 628.512L838.056 653.468L798.151 683.024L797.828 658.068L837.732 628.512Z" fill="#B07D16"/>
<path d="M797.824 658.068L798.147 683.024L755.803 652.258L755.479 627.302L797.824 658.068Z" fill="#E5A31C"/>
</svg>
