<svg width="40" height="42" viewBox="0 0 40 42" fill="none" xmlns="http://www.w3.org/2000/svg">
<path d="M35.249 13.4502C36.1953 13.4535 37.1177 13.154 37.8816 12.5956C38.6454 12.0371 39.2106 11.249 39.4944 10.3463C39.7783 9.44367 39.7659 8.47389 39.4592 7.57876C39.1525 6.68364 38.5674 5.91013 37.7896 5.3713C37.0118 4.83248 36.082 4.55662 35.1362 4.58404C34.1903 4.61147 33.2781 4.94076 32.5328 5.52374C31.7875 6.10673 31.2482 6.91283 30.9939 7.82422C30.7395 8.73561 30.7834 9.70446 31.119 10.5891L25.741 14.6082C24.9549 13.8818 24 13.3631 22.9627 13.0991C21.9255 12.8351 20.8388 12.8341 19.801 13.0962L16.82 6.50616C17.4472 5.91774 17.8495 5.12893 17.9574 4.27572C18.0653 3.42252 17.8721 2.55839 17.4112 1.83233C16.9503 1.10628 16.2505 0.563804 15.4325 0.298429C14.6144 0.0330537 13.7294 0.0614211 12.9301 0.378629C12.1307 0.695837 11.4671 1.28199 11.0536 2.03607C10.6401 2.79015 10.5026 3.66488 10.665 4.50943C10.8273 5.35397 11.2792 6.11539 11.9428 6.66244C12.6064 7.2095 13.44 7.5079 14.3 7.50616C14.4771 7.50473 14.6539 7.49067 14.829 7.46414L17.776 13.9802C16.4487 14.8563 15.4883 16.1881 15.076 17.7241L9.97604 17.2921C9.77624 16.1187 9.15536 15.0584 8.22976 14.3099C7.30417 13.5615 6.1374 13.1763 4.94812 13.2265C3.75884 13.2767 2.62868 13.7589 1.76947 14.5827C0.910253 15.4065 0.380969 16.5154 0.280789 17.7015C0.180609 18.8876 0.516409 20.0695 1.22528 21.0258C1.93415 21.982 2.96741 22.647 4.13142 22.8959C5.29543 23.1449 6.51029 22.9608 7.54831 22.3782C8.58632 21.7956 9.37624 20.8545 9.77003 19.7311L14.89 20.1652C15.0018 21.1231 15.3252 22.0442 15.837 22.8616C16.3488 23.679 17.0361 24.3722 17.849 24.8911L16.849 27.4072L15.916 29.7482C14.4308 29.5023 12.9071 29.8143 11.6381 30.6242C10.3691 31.4341 9.44438 32.6846 9.04187 34.1353C8.63936 35.5859 8.78748 37.1341 9.45775 38.4821C10.128 39.8301 11.2731 40.8827 12.6727 41.4373C14.0722 41.9918 15.6274 42.0093 17.0391 41.4863C18.4508 40.9632 19.6191 39.9367 20.3195 38.6041C21.0198 37.2715 21.2027 35.7269 20.8328 34.2676C20.463 32.8083 19.5666 31.5373 18.316 30.6992L19.259 28.3301L20.259 25.8231C21.4937 26.0417 22.7652 25.8957 23.9182 25.403C25.0711 24.9104 26.0556 24.0924 26.751 23.0492L31.251 25.2352C31.2117 25.4429 31.1912 25.6537 31.19 25.8651C31.1878 26.6738 31.4695 27.4576 31.986 28.0798C32.5026 28.702 33.2212 29.1231 34.0165 29.2696C34.8117 29.4162 35.6332 29.2789 36.3376 28.8817C37.042 28.4844 37.5846 27.8525 37.8707 27.0962C38.1568 26.3398 38.1684 25.507 37.9032 24.7431C37.6381 23.9791 37.1132 23.3325 36.4201 22.9159C35.727 22.4994 34.9096 22.3394 34.1106 22.4639C33.3115 22.5884 32.5816 22.9895 32.048 23.5972L27.548 21.4091C28.0646 19.8132 27.9412 18.079 27.204 16.5721L32.584 12.5532C33.35 13.1363 34.2864 13.4514 35.249 13.4502Z" fill="#141414"/>
</svg>
